# xmcd CD database file
#
# Track frame offsets:
#	150
#	26702
#	41307
#	55975
#	69236
#	85430
#	101771
#	117996
#	130031
#	144769
#	160757
#	179549
#
# Disc length: 2615 seconds
#
# Revision: 1
# Processed by: cddbd v1.5.2PL0 Copyright (c) Steve Scherf et al.
# Submitted via: CDex 1.50Beta7
#
DISCID=9c0a350c
DTITLE=Western Union - R‰der
DYEAR=1995
DGENRE=Country
TTITLE0=Transit Cowboy
TTITLE1=Frei wie die Adler
TTITLE2=R‰der
TTITLE3=Highway Driver
TTITLE4=Der Mann im Spiegel
TTITLE5=Der liebe Gott muﬂ`n Cowboy sein
TTITLE6=B‰renstark
TTITLE7=Ausgerechnet mir...
TTITLE8=Sie holt mich hier raus
TTITLE9=Eigentlich brauch` ich nur Dich
TTITLE10=Ich kann lieben, aber zeigen kann ich`s nicht
TTITLE11=Trotzdem sagt sie immer wieder ja
EXTD=YEAR: 1995
EXTT0=
EXTT1=
EXTT2=
EXTT3=
EXTT4=
EXTT5=
EXTT6=
EXTT7=
EXTT8=
EXTT9=
EXTT10=
EXTT11=
PLAYORDER=
